<?xml version="1.0" standalone="no"?>
<!DOCTYPE svg PUBLIC "-//W3C//DTD SVG 20010904//EN"
 "http://www.w3.org/TR/2001/REC-SVG-20010904/DTD/svg10.dtd">
<svg version="1.0" xmlns="http://www.w3.org/2000/svg"
 width="192.000000pt" height="192.000000pt" viewBox="0 0 192.000000 192.000000"
 preserveAspectRatio="xMidYMid meet">

<g transform="translate(0.000000,192.000000) scale(0.100000,-0.100000)"
fill="#000000" stroke="none">
<path d="M894 1872 c-28 -4 -58 -12 -65 -18 -8 -7 -25 -15 -39 -19 -14 -4 -46
-20 -72 -36 -27 -16 -48 -26 -48 -23 0 3 -26 -15 -59 -40 -60 -46 -128 -137
-116 -156 3 -5 0 -7 -8 -4 -17 6 -88 -70 -117 -126 -13 -26 -26 -78 -32 -134
-12 -110 5 -224 48 -314 l28 -57 6 40 c5 29 8 35 14 23 11 -25 43 -28 70 -7
31 24 34 24 38 -3 3 -20 8 -23 42 -21 68 5 71 45 5 65 -30 9 -55 9 -101 0 -34
-6 -64 -9 -67 -7 -5 5 -7 32 -11 160 -3 79 -3 79 26 92 16 7 39 10 51 8 15 -4
28 3 43 22 22 28 23 60 2 55 -35 -7 -78 56 -54 80 16 16 42 -2 36 -27 -4 -17
0 -24 16 -28 12 -3 20 -3 17 0 -3 3 6 15 21 28 23 20 28 21 36 8 7 -13 11 -11
25 9 22 33 77 34 74 1 -4 -32 12 -29 39 7 23 31 21 31 98 16 26 -5 54 -18 73
-34 12 -10 17 -11 17 -3 0 7 4 10 9 7 5 -3 11 1 14 8 4 10 16 13 36 11 22 -3
31 0 31 10 0 22 21 18 27 -4 4 -16 8 -17 18 -8 7 7 10 19 7 27 -4 12 -1 11 15
-2 11 -10 26 -18 34 -18 9 0 24 -6 35 -14 13 -10 23 -11 31 -4 7 6 13 6 13 1
0 -5 9 -19 20 -31 12 -12 18 -22 15 -22 -4 0 1 -7 9 -16 17 -16 21 -34 9 -34
-5 0 -18 11 -30 24 -23 24 -73 41 -73 24 0 -5 -10 -8 -22 -6 -35 4 -109 -13
-102 -23 3 -5 1 -9 -5 -9 -5 0 -13 5 -17 11 -4 7 -13 1 -24 -16 -17 -26 -18
-26 -29 -9 -11 18 -12 18 -9 -1 2 -11 11 -20 20 -20 9 0 19 -3 23 -6 3 -4 21
-5 39 -2 19 2 46 -1 61 -7 24 -9 31 -7 47 10 11 12 17 28 14 36 -3 7 -4 14 -2
14 13 0 74 -37 84 -52 7 -10 19 -18 26 -18 26 0 116 -263 116 -338 0 -32 5
-54 15 -62 12 -10 15 -10 15 1 0 10 3 10 12 1 8 -8 8 -15 -2 -27 -20 -24 -6
-28 30 -10 17 9 38 14 46 11 11 -4 12 -2 4 13 -7 14 -6 20 6 25 8 3 13 2 10
-3 -4 -5 3 -7 14 -4 l21 6 -20 14 c-23 16 -25 59 -3 68 9 3 10 10 4 21 -15 27
24 65 57 57 14 -3 32 -10 38 -15 14 -11 26 12 37 75 4 21 14 41 22 44 7 3 14
15 14 28 0 12 6 28 14 34 11 9 11 24 -1 94 -8 45 -18 91 -23 102 -5 11 -12 35
-15 53 -4 19 -18 41 -34 53 -22 16 -26 26 -23 50 5 36 15 37 41 2 11 -16 21
-23 21 -16 0 19 -82 83 -106 83 -36 0 -74 18 -74 35 0 8 -7 15 -16 15 -8 0
-12 5 -9 10 6 9 -1 11 -45 15 -9 0 -31 12 -50 25 -42 30 -134 64 -138 51 -2
-5 -18 -4 -38 2 -22 7 -33 15 -30 24 13 34 -149 61 -270 45z m151 -22 l30 -8
-30 0 c-16 0 -43 4 -60 8 l-30 8 30 0 c17 0 44 -4 60 -8z m-445 -204 c-20 -18
-60 -30 -60 -18 0 6 12 15 28 20 39 15 48 14 32 -2z m985 -36 c4 -7 -3 -8 -22
-4 -38 9 -42 14 -10 14 14 0 29 -5 32 -10z m-942 -60 c-3 -11 -9 -20 -13 -20
-4 0 -12 -11 -18 -25 -6 -14 -17 -25 -24 -24 -10 0 -10 2 0 6 6 2 12 9 12 14
0 9 40 69 46 69 1 0 0 -9 -3 -20z m-113 -30 c0 -5 -4 -10 -10 -10 -5 0 -10 5
-10 10 0 6 5 10 10 10 6 0 10 -4 10 -10z m-51 -56 c-5 -7 -19 -14 -29 -17 -27
-7 -26 20 0 28 11 3 20 12 20 18 0 7 4 6 10 -3 5 -9 5 -19 -1 -26z m755 17
c13 -11 16 -11 16 0 0 7 12 1 28 -14 22 -21 31 -24 40 -15 6 6 13 10 15 7 1
-2 15 -21 30 -41 16 -22 24 -43 21 -53 -6 -14 -11 -12 -35 11 -15 14 -34 24
-42 21 -8 -3 -20 0 -26 6 -8 8 -11 6 -11 -8 0 -18 -1 -17 -20 3 -11 12 -20 26
-20 32 0 5 -4 10 -8 10 -7 0 -32 43 -32 55 0 7 29 -2 44 -14z m271 -15 c15
-22 37 -86 30 -86 -7 0 -38 55 -45 81 -10 35 -6 37 15 5z m61 -74 c-6 -6 -26
43 -25 61 0 7 7 -3 15 -22 8 -18 13 -36 10 -39z m-137 -34 c1 -10 -3 -18 -8
-18 -14 0 -19 24 -13 56 l6 29 7 -25 c4 -14 7 -33 8 -42z m31 22 c0 -13 -1
-13 -10 0 -5 8 -10 22 -10 30 0 13 1 13 10 0 5 -8 10 -22 10 -30z m160 -43 c0
-5 -7 -4 -15 3 -8 7 -15 20 -15 29 1 13 3 13 15 -3 8 -11 15 -24 15 -29z m25
23 c3 -5 1 -10 -4 -10 -6 0 -11 5 -11 10 0 6 2 10 4 10 3 0 8 -4 11 -10z
m-155 -150 c0 -5 -2 -10 -4 -10 -3 0 -8 5 -11 10 -3 6 -1 10 4 10 6 0 11 -4
11 -10z m30 -124 c-13 -13 -41 17 -39 43 1 13 2 12 6 -1 6 -25 24 -22 31 5 6
20 7 20 10 -7 2 -16 -2 -34 -8 -40z m-63 -68 c-3 -8 -6 -5 -6 6 -1 11 2 17 5
13 3 -3 4 -12 1 -19z"/>
<path d="M650 1401 c0 -6 -11 -11 -24 -11 -26 0 -56 -33 -56 -61 0 -24 51 -33
68 -11 9 12 17 14 30 6 41 -24 71 18 40 58 -16 20 -58 33 -58 19z"/>
<path d="M901 1036 c-10 -12 -9 -13 7 -9 14 3 21 -2 26 -20 8 -35 31 -40 79
-18 l42 20 -45 20 c-53 24 -93 27 -109 7z"/>
<path d="M1560 1000 c0 -5 4 -10 9 -10 5 0 11 -12 13 -27 l4 -28 12 28 c7 16
10 33 6 38 -7 12 -44 12 -44 -1z"/>
<path d="M638 748 c9 -9 15 -9 24 0 9 9 7 12 -12 12 -19 0 -21 -3 -12 -12z"/>
<path d="M725 750 c28 -12 37 -12 30 0 -3 6 -16 10 -28 9 -21 0 -21 -1 -2 -9z"/>
<path d="M1350 722 c0 -10 6 -26 13 -35 11 -16 14 -16 42 3 26 17 27 20 10 25
-11 4 -30 11 -42 16 -19 7 -23 5 -23 -9z"/>
<path d="M620 629 c-31 -6 -30 -6 18 -8 28 0 52 1 52 3 0 8 -37 11 -70 5z"/>
<path d="M878 633 c7 -3 16 -2 19 1 4 3 -2 6 -13 5 -11 0 -14 -3 -6 -6z"/>
<path d="M474 593 c9 -18 30 -49 48 -68 18 -21 27 -40 22 -44 -10 -10 -86 -41
-147 -60 -100 -33 -285 -200 -313 -283 -8 -26 -20 -50 -25 -53 -5 -4 -9 -24
-9 -46 l0 -39 173 0 174 0 11 25 c7 14 12 34 12 45 0 10 4 21 9 25 6 3 10 36
10 73 0 44 7 86 20 122 12 30 21 56 21 57 0 2 9 3 20 3 12 0 29 15 44 39 14
22 35 46 47 55 20 14 21 16 5 22 -9 3 -30 25 -46 48 -16 22 -44 57 -61 76
l-31 35 16 -32z"/>
<path d="M1432 473 c2 -16 -2 -28 -9 -28 -6 0 -33 -28 -60 -62 -28 -34 -110
-125 -183 -202 -73 -77 -139 -150 -147 -161 -14 -20 -14 -20 436 -20 248 0
451 1 451 3 0 17 -66 157 -85 179 -14 16 -25 36 -25 43 0 15 -115 135 -129
135 -5 0 -46 25 -92 57 -73 49 -136 83 -154 83 -3 0 -4 -12 -3 -27z"/>
<path d="M1035 404 c-73 -28 -179 -43 -256 -38 -71 5 -73 4 -46 -11 15 -9 27
-19 27 -23 0 -4 -23 -29 -51 -57 -28 -27 -60 -67 -71 -90 -11 -22 -27 -48 -36
-57 -14 -16 -13 -18 4 -18 24 0 94 69 94 93 0 24 16 21 55 -9 41 -31 49 -51
32 -78 -20 -31 -47 -116 -37 -116 5 0 14 17 20 39 11 43 45 91 64 91 7 0 23
12 37 26 13 14 37 31 53 38 28 11 29 12 10 30 -25 25 -64 78 -64 87 0 4 12 10
27 14 41 10 169 71 177 84 4 6 6 11 4 10 -2 0 -21 -7 -43 -15z m-188 -124 c23
-10 49 -48 39 -58 -4 -3 -21 9 -39 26 -18 18 -38 32 -45 32 -7 0 -12 2 -12 4
0 2 -3 13 -7 23 -7 17 -6 17 17 0 14 -9 35 -21 47 -27z"/>
<path d="M565 349 c-53 -70 -75 -106 -75 -119 0 -21 40 -9 56 18 10 15 28 43
41 64 15 22 23 47 21 64 -3 27 -4 26 -43 -27z"/>
<path d="M950 169 c0 -11 -5 -29 -11 -40 -13 -26 6 -55 26 -39 18 15 27 70 14
86 -17 20 -29 17 -29 -7z"/>
<path d="M660 130 c0 -5 -25 -35 -56 -67 l-56 -58 49 -3 c58 -3 136 26 153 57
9 17 8 21 -5 21 -9 0 -30 13 -47 30 -32 32 -38 35 -38 20z"/>
</g>
</svg>
